<svg version="1.1" xmlns="http://www.w3.org/2000/svg" viewBox="0 0 973.6714992722405 438.49549143082163" width="1947.342998544481" height="876.9909828616433">
  <!-- svg-source:excalidraw -->
  
  <defs>
    <style class="style-fonts">
      @font-face {
        font-family: "Virgil";
        src: url("https://excalidraw.com/Virgil.woff2");
      }
      @font-face {
        font-family: "Cascadia";
        src: url("https://excalidraw.com/Cascadia.woff2");
      }
      @font-face {
        font-family: "Assistant";
        src: url("https://excalidraw.com/Assistant-Regular.woff2");
      }
    </style>
    
  </defs>
  <rect x="0" y="0" width="973.6714992722405" height="438.49549143082163" fill="#ffffff"></rect><g transform="translate(151.2175898537476 142.8789868994777) rotate(0 404.296875 12)"><text x="0" y="19.3125" font-family="Cascadia, Segoe UI Emoji" font-size="20px" fill="#343a40" text-anchor="start" style="white-space: pre;" direction="ltr" dominant-baseline="alphabetic">client:MTpVc2VyOjEyMw==:__user_friends_connection(search:{"name":""})</text></g><g stroke-linecap="round"><g transform="translate(150.6785273537476 177.07358543439057) rotate(0 34.98689981547582 0)"><path d="M-0.15 0.7 C11.65 0.81, 58.16 -0.37, 69.73 -0.57 M-1.68 0.03 C10.03 0.39, 57.01 0.58, 68.65 0.67" stroke="#da77f2" stroke-width="4" fill="none"></path></g></g><mask></mask><g stroke-linecap="round"><g transform="translate(231.74967645209136 176.3105276599872) rotate(0 94.35955497716321 0)"><path d="M-0.72 1.19 C31.07 1.13, 157.93 -1.07, 189.62 -1.12 M1.11 0.77 C32.92 0.88, 157.83 0.12, 189.15 -0.17" stroke="#228be6" stroke-width="4" fill="none"></path></g></g><mask></mask><g stroke-linecap="round"><g transform="translate(434.48871255367504 175.1168351388319) rotate(0 263.6771554077628 0)"><path d="M-0.47 0.84 C87.37 0.79, 438.8 -0.06, 526.77 -0.05 M1.49 0.23 C89.75 0.37, 441.66 1.66, 529.18 1.46" stroke="#40c057" stroke-width="4" fill="none"></path></g></g><mask></mask><g stroke-linecap="round"><g transform="translate(177.25220395271208 276.07608225606185) rotate(0 0.5894845546279441 -45.44874928813289)"><path d="M1.02 0.65 C1.12 -14.63, 0.79 -76.02, 0.94 -91.16 M0.1 -0.05 C-0.01 -15.2, -0.37 -74.4, -0.14 -89.76" stroke="#da77f2" stroke-width="4" fill="none"></path></g><g transform="translate(177.25220395271208 276.07608225606185) rotate(0 0.5894845546279441 -45.44874928813289)"><path d="M8.34 -66.24 C6.54 -74.28, 2.24 -80.4, -0.14 -89.76 M8.34 -66.24 C5.14 -74.67, 1.37 -82.16, -0.14 -89.76" stroke="#da77f2" stroke-width="4" fill="none"></path></g><g transform="translate(177.25220395271208 276.07608225606185) rotate(0 0.5894845546279441 -45.44874928813289)"><path d="M-8.76 -66.3 C-4.96 -74.46, -3.66 -80.56, -0.14 -89.76 M-8.76 -66.3 C-5.86 -74.58, -3.52 -82.05, -0.14 -89.76" stroke="#da77f2" stroke-width="4" fill="none"></path></g></g><mask></mask><g stroke-linecap="round"><g transform="translate(331.2574979312501 54.49434330698929) rotate(0 0 38.88272985451313)"><path d="M-0.7 -1.18 C-0.7 11.77, 0.14 65.6, 0.22 78.83 M1.13 0.81 C0.97 13.97, -0.23 64.72, -0.62 77.26" stroke="#228be6" stroke-width="4" fill="none"></path></g><g transform="translate(331.2574979312501 54.49434330698929) rotate(0 0 38.88272985451313)"><path d="M-8.54 53.55 C-7.78 61.5, -1.52 68.25, -0.62 77.26 M-8.54 53.55 C-5.42 60.91, -3.76 70.04, -0.62 77.26" stroke="#228be6" stroke-width="4" fill="none"></path></g><g transform="translate(331.2574979312501 54.49434330698929) rotate(0 0 38.88272985451313)"><path d="M8.55 54 C3.88 61.71, 4.7 68.31, -0.62 77.26 M8.55 54 C5.97 61.15, 1.92 70.13, -0.62 77.26" stroke="#228be6" stroke-width="4" fill="none"></path></g></g><mask></mask><g stroke-linecap="round"><g transform="translate(692.4942769431566 272.9366441832475) rotate(0 0 -44.583324774983964)"><path d="M-1.17 -0.07 C-1.23 -14.87, 0.11 -75.06, 0.14 -89.75 M0.41 -1.15 C0.16 -15.71, -0.9 -73.71, -0.74 -88.51" stroke="#40c057" stroke-width="4" fill="none"></path></g><g transform="translate(692.4942769431566 272.9366441832475) rotate(0 0 -44.583324774983964)"><path d="M7.95 -65.07 C5.06 -72.93, 1.23 -82.81, -0.74 -88.51 M7.95 -65.07 C5.59 -74.22, 0.67 -82.48, -0.74 -88.51" stroke="#40c057" stroke-width="4" fill="none"></path></g><g transform="translate(692.4942769431566 272.9366441832475) rotate(0 0 -44.583324774983964)"><path d="M-9.15 -64.97 C-6.2 -72.7, -4.18 -82.61, -0.74 -88.51 M-9.15 -64.97 C-4.94 -74.22, -3.3 -82.51, -0.74 -88.51" stroke="#40c057" stroke-width="4" fill="none"></path></g></g><mask></mask><g transform="translate(10 288.4411303425836) rotate(0 177.18389892578125 17.5)"><text x="0" y="24.528" font-family="Virgil, Segoe UI Emoji" font-size="28px" fill="#da77f2" text-anchor="start" style="white-space: pre;" direction="ltr" dominant-baseline="alphabetic">pre-defined root identifier</text></g><g transform="translate(199.95485427618092 10) rotate(0 127.5119400024414 17.5)"><text x="0" y="24.528" font-family="Virgil, Segoe UI Emoji" font-size="28px" fill="#228be6" text-anchor="start" style="white-space: pre;" direction="ltr" dominant-baseline="alphabetic">ID of parent type</text></g><g transform="translate(462.0778656255091 288.4954914308216) rotate(0 248.3038787841797 70.00000000000003)"><text x="0" y="24.528" font-family="Virgil, Segoe UI Emoji" font-size="28px" fill="#40c057" text-anchor="start" style="white-space: pre;" direction="ltr" dominant-baseline="alphabetic">value of connection's "key' argument</text><text x="0" y="59.528" font-family="Virgil, Segoe UI Emoji" font-size="28px" fill="#40c057" text-anchor="start" style="white-space: pre;" direction="ltr" dominant-baseline="alphabetic">suffixed with `_connection` string</text><text x="0" y="94.52799999999999" font-family="Virgil, Segoe UI Emoji" font-size="28px" fill="#40c057" text-anchor="start" style="white-space: pre;" direction="ltr" dominant-baseline="alphabetic">with appended "filters" and their </text><text x="0" y="129.528" font-family="Virgil, Segoe UI Emoji" font-size="28px" fill="#40c057" text-anchor="start" style="white-space: pre;" direction="ltr" dominant-baseline="alphabetic">values </text></g></svg>